<svg width="24" height="24" viewBox="0 0 24 24" fill="none" xmlns="http://www.w3.org/2000/svg">
<path d="M21.7733 10.3146V20.5556C21.7733 21.2039 21.5158 21.8256 21.0573 22.284C20.5989 22.7425 19.9772 23 19.3288 23H4.67196C4.02387 22.9997 3.40243 22.742 2.94427 22.2836C2.48611 21.8252 2.22874 21.2037 2.22874 20.5556V10.3146M6.50285 8.02778L7.11396 1M6.50285 8.02778C6.50285 11.5747 12.0004 11.5747 12.0004 8.02778M6.50285 8.02778C6.50285 11.9096 0.202294 11.1078 1.08474 7.72467L2.36196 2.82722C2.49846 2.30415 2.8045 1.84107 3.23221 1.51046C3.65991 1.17984 4.18515 1.00032 4.72574 1H19.2751C19.8157 1.00032 20.3409 1.17984 20.7686 1.51046C21.1963 1.84107 21.5023 2.30415 21.6388 2.82722L22.9161 7.72467C23.7985 11.109 17.498 11.9096 17.498 8.02778M12.0004 8.02778V1M12.0004 8.02778C12.0004 11.5747 17.498 11.5747 17.498 8.02778M17.498 8.02778L16.8868 1" stroke="#949494" stroke-width="1.5" stroke-linecap="round" stroke-linejoin="round"/>
</svg>
