<svg width="32" height="33" viewBox="0 0 32 33" fill="none" xmlns="http://www.w3.org/2000/svg">
<rect y="0.5" width="32" height="32" rx="4" fill="url(#paint0_linear_1018_19876)"/>
<path fill-rule="evenodd" clip-rule="evenodd" d="M16.0003 17.9146L10.7072 23.2077C10.6568 23.2547 10.6063 23.2988 10.5485 23.3367C10.4342 23.4117 10.3047 23.4628 10.17 23.486C10.1101 23.4964 10.0947 23.4958 10.0342 23.5C10.0114 23.5 9.98866 23.5 9.96591 23.5C9.9054 23.4958 9.89 23.4964 9.83015 23.486C9.7179 23.4667 9.60919 23.428 9.50994 23.3722C9.43053 23.3276 9.35733 23.2721 9.29293 23.2077C9.09842 23.0132 8.99121 22.7413 9.00056 22.4664C9.00371 22.3754 9.01932 22.2848 9.04687 22.198C9.08132 22.0895 9.13442 21.987 9.20322 21.8963C9.23992 21.8479 9.25153 21.8377 9.29293 21.7934L14.586 16.5003L9.29293 11.2072C9.25153 11.1628 9.23992 11.1527 9.20322 11.1043C9.13442 11.0136 9.08132 10.9111 9.04687 10.8026C9.00551 10.6723 8.99126 10.5337 9.00526 10.3977C9.04062 10.0536 9.25813 9.74546 9.57054 9.5969C9.65279 9.5578 9.74035 9.53 9.83015 9.5145C9.94235 9.4952 10.0578 9.4952 10.17 9.5145C10.3272 9.54165 10.4772 9.60675 10.6043 9.70321C10.6527 9.73991 10.6628 9.75151 10.7072 9.79291L16.0003 15.086L21.2934 9.79291C21.3377 9.75151 21.3479 9.73991 21.3963 9.70321C21.487 9.63441 21.5895 9.5813 21.698 9.54685C21.8283 9.5055 21.9669 9.49125 22.1028 9.50525C22.2161 9.51685 22.3272 9.548 22.43 9.5969C22.5123 9.63601 22.5891 9.68641 22.6578 9.74626C22.9185 9.97362 23.0448 10.329 22.9861 10.67C22.959 10.8272 22.8938 10.9772 22.7974 11.1043C22.7607 11.1527 22.7491 11.1628 22.7077 11.2072L17.4146 16.5003L22.7077 21.7934C22.7491 21.8377 22.7607 21.8479 22.7974 21.8963C22.8662 21.987 22.9193 22.0895 22.9538 22.198C22.9813 22.2848 22.9969 22.3754 23 22.4664C23.0094 22.7413 22.9022 23.0132 22.7077 23.2077C22.6433 23.2721 22.5701 23.3276 22.4907 23.3722C22.3914 23.428 22.2827 23.4667 22.1705 23.486C22.1106 23.4964 22.0952 23.4958 22.0347 23.5C22.0119 23.5 21.9892 23.5 21.9664 23.5C21.9059 23.4958 21.8905 23.4964 21.8307 23.486C21.696 23.4628 21.5664 23.4117 21.4521 23.3367C21.3942 23.2988 21.3438 23.2547 21.2934 23.2077L16.0003 17.9146Z" fill="white"/>
<defs>
<linearGradient id="paint0_linear_1018_19876" x1="16" y1="0.5" x2="16" y2="32.5" gradientUnits="userSpaceOnUse">
<stop stop-color="#E84A4A"/>
<stop offset="1" stop-color="#F1833F"/>
</linearGradient>
</defs>
</svg>
