<svg width="19" height="19" viewBox="0 0 19 19" fill="none" xmlns="http://www.w3.org/2000/svg">
<path opacity="0.32" d="M17.7158 8.56343C17.7972 8.30015 17.8379 8.02808 17.8379 7.75163C17.8379 7.13071 17.6277 6.53392 17.248 6.04684C17.3294 5.78355 17.3701 5.51149 17.3701 5.23504C17.3701 4.61412 17.1599 4.01733 16.7802 3.53025C16.8616 3.26696 16.9023 2.9949 16.9023 2.71845C16.9023 1.58631 16.2085 0.566069 15.1328 0.120674C14.9437 0.0415306 14.7398 0.00119322 14.5339 0.00219403H3.86498V9.39279H3.87176L5.81074 16.2119C6.12261 17.3112 7.16215 18.0791 8.33729 18.0791C9.00848 18.0791 9.63447 17.8202 10.0977 17.3463C10.561 16.8745 10.7983 16.2558 10.7644 15.6042L10.6288 12.9077H16.0503C16.3237 12.9077 16.5904 12.8375 16.8254 12.7036C17.7384 12.188 18.3057 11.2534 18.3057 10.2682C18.3057 9.6473 18.0955 9.05052 17.7158 8.56343ZM0.226562 0.702101V8.6885C0.226562 9.07685 0.549726 9.3906 0.949726 9.3906H2.41865V0H0.949726C0.549726 0 0.226562 0.313751 0.226562 0.702101Z" fill="#3B3B3B"/>
</svg>
