<svg width="31" height="30" viewBox="0 0 31 30" fill="none" xmlns="http://www.w3.org/2000/svg">
<path fill-rule="evenodd" clip-rule="evenodd" d="M5.98438 0H25.9844C28.7458 0 30.9844 2.23858 30.9844 5V25C30.9844 27.7614 28.7458 30 25.9844 30H5.98438C3.22295 30 0.984375 27.7614 0.984375 25V5C0.984375 2.23858 3.22295 0 5.98438 0ZM5.98438 2.21667L5.74422 2.22688C4.31946 2.34865 3.20104 3.54371 3.20104 5V25C3.20104 26.5372 4.44718 27.7833 5.98438 27.7833H7.09548L18.7608 12.4595C18.909 12.2648 19.073 12.0828 19.2511 11.9152C21.0376 10.2341 23.8486 10.3195 25.5297 12.106L28.7677 15.5471V5C28.7677 3.46281 27.5216 2.21667 25.9844 2.21667H5.98438ZM28.7677 18.7817L23.9154 13.6251C23.0732 12.7302 21.6651 12.6874 20.7702 13.5295C20.6809 13.6135 20.5988 13.7047 20.5246 13.8021L9.88136 27.7833H25.9844C27.5216 27.7833 28.7677 26.5372 28.7677 25V18.7817ZM10.151 11.6667C11.5318 11.6667 12.651 10.5474 12.651 9.16667C12.651 7.78595 11.5318 6.66667 10.151 6.66667C8.77033 6.66667 7.65104 7.78595 7.65104 9.16667C7.65104 10.5474 8.77033 11.6667 10.151 11.6667ZM10.9844 9.16667C10.9844 9.6269 10.6113 10 10.151 10C9.6908 10 9.31771 9.6269 9.31771 9.16667C9.31771 8.70643 9.6908 8.33333 10.151 8.33333C10.6113 8.33333 10.9844 8.70643 10.9844 9.16667Z" fill="black" fill-opacity="0.3"/>
</svg>
