<svg width="31" height="28" viewBox="0 0 31 28" fill="none" xmlns="http://www.w3.org/2000/svg">
<path d="M16.7259 18.298L13.1468 14.784L13.1891 14.742C15.5763 12.1059 17.3599 8.98696 18.4168 5.6H22.5455V2.8H12.6818V0H9.86364V2.8H0V5.6H15.7395C14.7955 8.288 13.3018 10.85 11.2727 13.09C9.96227 11.648 8.87727 10.066 8.01773 8.4H5.19955C6.22818 10.682 7.63727 12.838 9.39864 14.784L2.22636 21.812L4.22727 23.8L11.2727 16.8L15.655 21.154L16.7259 18.298ZM24.6591 11.2H21.8409L15.5 28H18.3182L19.8964 23.8H26.5895L28.1818 28H31L24.6591 11.2ZM20.9673 21L23.25 14.938L25.5327 21H20.9673Z" fill="#99917D"/>
</svg>
