<svg width="42" height="42" viewBox="0 0 42 42" fill="none" xmlns="http://www.w3.org/2000/svg">
<rect width="42" height="42" rx="21" fill="url(#paint0_linear_3759_13609)"/>
<path d="M15.6992 20.1274H26.3192V21.3175H15.6992V20.1274ZM15.6992 25.3638H22.1992V26.5539H15.6992V25.3638Z" fill="white"/>
<path d="M28.66 33.0002H13.34C13.02 33.0002 12.72 32.9407 12.42 32.8217C12.14 32.7027 11.88 32.544 11.68 32.3258C11.46 32.1076 11.3 31.8696 11.18 31.5919C11.06 31.2944 11 30.9969 11 30.6795V14.8713C11 14.5539 11.06 14.2564 11.18 13.9589C11.3 13.6812 11.46 13.4233 11.68 13.225C11.9 13.0068 12.14 12.8481 12.42 12.7291C12.72 12.6101 13.02 12.5506 13.34 12.5506H15.66V13.7208H13.34C12.7 13.7208 12.16 14.2365 12.16 14.8911V30.6994C12.16 31.3341 12.68 31.8696 13.34 31.8696H28.64C29.28 31.8696 29.82 31.3539 29.82 30.6994V14.8713C29.82 14.2365 29.3 13.701 28.64 13.701H26.34V12.5308H28.66C28.98 12.5308 29.28 12.5903 29.58 12.7093C29.86 12.8283 30.12 12.987 30.32 13.2051C30.54 13.4233 30.7 13.6613 30.82 13.939C30.94 14.2365 31 14.5341 31 14.8514V30.6597C31 30.977 30.94 31.2746 30.82 31.5721C30.7 31.8498 30.54 32.1076 30.32 32.306C30.1 32.5241 29.86 32.6828 29.58 32.8018C29.28 32.9407 28.98 33.0002 28.66 33.0002Z" fill="white"/>
<path d="M26.8791 16.0413H15.1191V12.2331C15.1191 11.4198 15.7791 10.7653 16.5991 10.7653H18.1191C18.6591 9.69421 19.7791 9 21.0191 9C22.2591 9 23.3791 9.69421 23.9191 10.7653H25.4391C26.2591 10.7653 26.9191 11.4198 26.9191 12.2331L26.8791 16.0413ZM16.2991 14.8711H25.7191V12.2331C25.7191 12.0744 25.5791 11.9355 25.4191 11.9355H23.0791L22.9391 11.5388C22.6591 10.7256 21.8791 10.1702 20.9991 10.1702C20.1191 10.1702 19.3391 10.7256 19.0591 11.5388L18.9191 11.9355H16.5791C16.4191 11.9355 16.2791 12.0744 16.2791 12.2331V14.8711H16.2991Z" fill="white"/>
<defs>
<linearGradient id="paint0_linear_3759_13609" x1="21" y1="0" x2="21" y2="42" gradientUnits="userSpaceOnUse">
<stop stop-color="#E84A4A"/>
<stop offset="1" stop-color="#F1833F"/>
</linearGradient>
</defs>
</svg>
