<svg width="42" height="42" viewBox="0 0 42 42" fill="none" xmlns="http://www.w3.org/2000/svg">
<rect width="42" height="42" rx="21" fill="white"/>
<path d="M9 24.4668C9 23.72 9 23.3467 9.14532 23.0615C9.27316 22.8106 9.47713 22.6067 9.72801 22.4788C10.0132 22.3335 10.3866 22.3335 11.1333 22.3335H12.2C12.9467 22.3335 13.3201 22.3335 13.6053 22.4788C13.8562 22.6067 14.0602 22.8106 14.188 23.0615C14.3333 23.3467 14.3333 23.72 14.3333 24.4668V30.8668C14.3333 31.6136 14.3333 31.987 14.188 32.2722C14.0602 32.5231 13.8562 32.727 13.6053 32.8548C13.3201 33.0002 12.9467 33.0002 12.2 33.0002H11.1333C10.3866 33.0002 10.0132 33.0002 9.72801 32.8548C9.47713 32.727 9.27316 32.5231 9.14532 32.2722C9 31.987 9 31.6136 9 30.8668V24.4668Z" stroke="#FB6D72" stroke-width="1.5" stroke-linecap="round" stroke-linejoin="round"/>
<path d="M18.334 11.1333C18.334 10.3866 18.334 10.0132 18.4793 9.72801C18.6072 9.47713 18.8111 9.27316 19.062 9.14532C19.3472 9 19.7205 9 20.4673 9H21.534C22.2808 9 22.6541 9 22.9393 9.14532C23.1903 9.27316 23.3941 9.47713 23.522 9.72801C23.6673 10.0132 23.6673 10.3866 23.6673 11.1333V30.8667C23.6673 31.6135 23.6673 31.9868 23.522 32.272C23.3941 32.5229 23.1903 32.7268 22.9393 32.8547C22.6541 33 22.2808 33 21.534 33H20.4673C19.7205 33 19.3472 33 19.062 32.8547C18.8111 32.7268 18.6072 32.5229 18.4793 32.272C18.334 31.9868 18.334 31.6135 18.334 30.8667V11.1333Z" stroke="#FB6D72" stroke-width="1.5" stroke-linecap="round" stroke-linejoin="round"/>
<path d="M27.666 19.1333C27.666 18.3865 27.666 18.0132 27.8113 17.728C27.9392 17.4771 28.1431 17.2732 28.394 17.1453C28.6792 17 29.0525 17 29.7993 17H30.866C31.6128 17 31.9861 17 32.2713 17.1453C32.5223 17.2732 32.7261 17.4771 32.854 17.728C32.9993 18.0132 32.9993 18.3865 32.9993 19.1333V30.8667C32.9993 31.6135 32.9993 31.9868 32.854 32.272C32.7261 32.5229 32.5223 32.7268 32.2713 32.8547C31.9861 33 31.6128 33 30.866 33H29.7993C29.0525 33 28.6792 33 28.394 32.8547C28.1431 32.7268 27.9392 32.5229 27.8113 32.272C27.666 31.9868 27.666 31.6135 27.666 30.8667V19.1333Z" stroke="#FB6D72" stroke-width="1.5" stroke-linecap="round" stroke-linejoin="round"/>
</svg>
