<svg width="17" height="19" viewBox="0 0 17 19" fill="none" xmlns="http://www.w3.org/2000/svg">
<path d="M12.6716 11.2994C11.8733 11.2994 11.1395 11.5755 10.5603 12.0372L6.94148 9.77546C7.04865 9.29069 7.04865 8.78837 6.94148 8.3036L10.5603 6.04181C11.1395 6.50356 11.8733 6.77966 12.6716 6.77966C14.5437 6.77966 16.0614 5.26197 16.0614 3.38983C16.0614 1.51769 14.5437 0 12.6716 0C10.7994 0 9.28173 1.51769 9.28173 3.38983C9.28173 3.64258 9.30963 3.88877 9.3621 4.12574L5.74325 6.38753C5.16404 5.92581 4.43032 5.64972 3.63202 5.64972C1.75988 5.64972 0.242188 7.16741 0.242188 9.03955C0.242188 10.9117 1.75988 12.4294 3.63202 12.4294C4.43032 12.4294 5.16404 12.1533 5.74325 11.6916L9.3621 13.9534C9.30861 14.195 9.28166 14.4418 9.28173 14.6893C9.28173 16.5614 10.7994 18.0791 12.6716 18.0791C14.5437 18.0791 16.0614 16.5614 16.0614 14.6893C16.0614 12.8171 14.5437 11.2994 12.6716 11.2994Z" fill="#ADADAD"/>
</svg>
