<svg width="24" height="24" viewBox="0 0 24 24" fill="none" xmlns="http://www.w3.org/2000/svg">
<path fill-rule="evenodd" clip-rule="evenodd" d="M23.7188 3.59068C23.7188 1.76294 22.2371 0.28125 20.4093 0.28125H3.59068C1.76294 0.28125 0.28125 1.76294 0.28125 3.59068V20.4093C0.28125 22.2371 1.76294 23.7188 3.59068 23.7188H20.4093C22.2371 23.7188 23.7188 22.2371 23.7188 20.4093V3.59068ZM19.698 10.5034C18.1859 10.5203 16.7768 10.0632 15.5397 9.21647V15.16C15.5397 17.8016 13.7315 20.0708 11.1746 20.6634C7.68624 21.4593 4.73323 18.9362 4.36078 15.9221C3.97131 12.908 5.89365 10.2664 8.84004 9.67368C9.41575 9.55518 10.2817 9.55518 10.7285 9.65678V12.8402C10.591 12.8064 10.4623 12.7725 10.3268 12.7556C9.17534 12.5524 8.0601 13.1281 7.60289 14.178C7.14571 15.2279 7.45172 16.447 8.38304 17.1583C9.16192 17.7679 10.0262 17.8525 10.9067 17.4461C11.7872 17.0567 12.2605 16.3455 12.362 15.3803C12.379 15.2449 12.378 15.0924 12.378 14.94V3.50994C12.378 3.18823 12.3805 3.20227 12.7023 3.20227H15.2253C15.4117 3.20227 15.4794 3.22907 15.4963 3.44933C15.6317 5.41359 17.1231 7.08644 19.0365 7.34048C19.2397 7.37432 19.4575 7.38773 19.698 7.40464V10.5034Z" fill="#909090"/>
</svg>
