<svg width="31" height="28" viewBox="0 0 31 28" fill="none" xmlns="http://www.w3.org/2000/svg">
<path d="M7.75 9.33203H12.9167" stroke="#99917D" stroke-width="1.5" stroke-linecap="round" stroke-linejoin="round"/>
<path d="M26.9093 10.5H23.5484C21.2428 10.5 19.375 12.0668 19.375 14C19.375 15.9332 21.244 17.5 23.5471 17.5H26.9093C27.0178 17.5 27.0707 17.5 27.116 17.4977C27.8135 17.4592 28.3689 16.9937 28.4141 16.4092C28.4167 16.3718 28.4167 16.3263 28.4167 16.2365V11.7635C28.4167 11.6737 28.4167 11.6282 28.4141 11.5908C28.3676 11.0063 27.8135 10.5408 27.116 10.5023C27.072 10.5 27.0178 10.5 26.9093 10.5Z" stroke="#99917D" stroke-width="1.5"/>
<path d="M26.3558 10.3138C26.2551 8.1298 25.9322 6.79047 24.8872 5.8478C23.3747 4.48047 20.9386 4.48047 16.0677 4.48047H12.1927C7.32183 4.48047 4.88575 4.48047 3.37321 5.8478C1.85937 7.21397 1.85938 9.4143 1.85938 13.8138C1.85938 18.2133 1.85937 20.4136 3.37321 21.7798C4.88575 23.1471 7.32183 23.1471 12.1927 23.1471H16.0677C20.9386 23.1471 23.3747 23.1471 24.8872 21.7798C25.9322 20.8371 26.2564 19.4978 26.3558 17.3138" stroke="#99917D" stroke-width="1.5"/>
<path d="M23.2383 14H23.2512" stroke="#FEC93E" stroke-width="2" stroke-linecap="round" stroke-linejoin="round"/>
</svg>
