<svg width="30" height="22" viewBox="0 0 30 22" fill="none" xmlns="http://www.w3.org/2000/svg">
<path d="M15.0956 0.748047H15.2625C16.8037 0.753672 24.6131 0.809922 26.7187 1.37617C27.3553 1.54899 27.9353 1.88584 28.4009 2.35306C28.8665 2.82029 29.2013 3.40152 29.3719 4.03867C29.5612 4.75117 29.6944 5.6943 29.7844 6.66742L29.8031 6.86242L29.8444 7.34992L29.8594 7.54492C29.9812 9.25867 29.9962 10.8637 29.9981 11.2143V11.3549C29.9962 11.7187 29.9794 13.4324 29.8444 15.2174L29.8294 15.4143L29.8125 15.6093C29.7187 16.6818 29.58 17.7468 29.3719 18.5306C29.2013 19.1677 28.8665 19.7489 28.4009 20.2162C27.9353 20.6834 27.3553 21.0202 26.7187 21.1931C24.5437 21.778 16.2769 21.8193 15.1312 21.8212H14.865C14.2856 21.8212 11.8894 21.8099 9.37687 21.7237L9.05812 21.7124L8.895 21.7049L8.57437 21.6918L8.25375 21.6787C6.1725 21.5868 4.19062 21.4387 3.2775 21.1912C2.64118 21.0185 2.06128 20.682 1.59572 20.2151C1.13016 19.7482 0.795231 19.1674 0.624375 18.5306C0.41625 17.7487 0.2775 16.6818 0.18375 15.6093L0.16875 15.4124L0.15375 15.2174C0.0606814 13.947 0.00940372 12.6738 0 11.3999L0 11.1693C0.00375 10.7662 0.01875 9.37305 0.12 7.83555L0.133125 7.64242L0.13875 7.54492L0.15375 7.34992L0.195 6.86242L0.21375 6.66742C0.30375 5.6943 0.436875 4.7493 0.62625 4.03867C0.79682 3.40152 1.13162 2.82029 1.5972 2.35306C2.06278 1.88584 2.64283 1.54899 3.27937 1.37617C4.1925 1.13242 6.17437 0.982422 8.25562 0.888672L8.57437 0.875547L8.89687 0.864297L9.05812 0.858672L9.37875 0.845547C11.1632 0.788179 12.9484 0.7563 14.7337 0.749922L15.0956 0.748047ZM12 6.7668V15.8006L19.7944 11.2855L12 6.7668Z" fill="#909090"/>
</svg>
