<svg width="30" height="22" viewBox="0 0 30 22" fill="none" xmlns="http://www.w3.org/2000/svg">
<path d="M15.0956 0.75H15.2625C16.8037 0.755625 24.6131 0.811875 26.7187 1.37813C27.3553 1.55094 27.9353 1.88779 28.4009 2.35502C28.8665 2.82224 29.2013 3.40347 29.3719 4.04063C29.5612 4.75313 29.6944 5.69625 29.7844 6.66938L29.8031 6.86438L29.8444 7.35188L29.8594 7.54688C29.9812 9.26063 29.9962 10.8656 29.9981 11.2163V11.3569C29.9962 11.7206 29.9794 13.4344 29.8444 15.2194L29.8294 15.4163L29.8125 15.6113C29.7187 16.6838 29.58 17.7488 29.3719 18.5325C29.2013 19.1697 28.8665 19.7509 28.4009 20.2181C27.9353 20.6853 27.3553 21.0222 26.7187 21.195C24.5437 21.78 16.2769 21.8213 15.1312 21.8231H14.865C14.2856 21.8231 11.8894 21.8119 9.37687 21.7256L9.05812 21.7144L8.895 21.7069L8.57437 21.6938L8.25375 21.6806C6.1725 21.5888 4.19062 21.4406 3.2775 21.1931C2.64118 21.0205 2.06128 20.6839 1.59572 20.217C1.13016 19.7502 0.795231 19.1693 0.624375 18.5325C0.41625 17.7506 0.2775 16.6838 0.18375 15.6113L0.16875 15.4144L0.15375 15.2194C0.0606814 13.9489 0.00940372 12.6757 0 11.4019L0 11.1713C0.00375 10.7681 0.01875 9.375 0.12 7.8375L0.133125 7.64438L0.13875 7.54688L0.15375 7.35188L0.195 6.86438L0.21375 6.66938C0.30375 5.69625 0.436875 4.75125 0.62625 4.04063C0.79682 3.40347 1.13162 2.82224 1.5972 2.35502C2.06278 1.88779 2.64283 1.55094 3.27937 1.37813C4.1925 1.13438 6.17437 0.984375 8.25562 0.890625L8.57437 0.8775L8.89687 0.86625L9.05812 0.860625L9.37875 0.8475C11.1632 0.790132 12.9484 0.758253 14.7337 0.751875L15.0956 0.75ZM12 6.76875V15.8025L19.7944 11.2875L12 6.76875Z" fill="#D2BC81"/>
</svg>
